<svg width="809" height="603" viewBox="0 0 809 603" fill="none" xmlns="http://www.w3.org/2000/svg">
<path opacity="0.5" d="M713 104L732.001 84.7855C737.872 78.8484 747.461 78.8484 753.332 84.7855L761.668 93.2145C767.539 99.1516 777.128 99.1516 782.999 93.2145L802 74" stroke="#4E887A" stroke-width="13" stroke-linecap="round"/>
<path opacity="0.5" d="M672 105L684.986 91.8309C690.861 85.8738 700.473 85.8738 706.347 91.8309L708.653 94.1691C714.527 100.126 724.139 100.126 730.014 94.1691L743 81" stroke="#4E887A" stroke-width="13" stroke-linecap="round"/>
<path opacity="0.5" d="M7.42603 576.741L20.6579 563.684C26.4993 557.919 35.8888 557.919 41.7302 563.684L44.4259 566.344C50.2673 572.108 59.6568 572.108 65.4982 566.344L78.7301 553.286" stroke="#4E887A" stroke-width="13" stroke-linecap="round"/>
<path opacity="0.5" d="M83.4211 588L96.653 574.942C102.494 569.178 111.884 569.178 117.725 574.942L120.421 577.602C126.262 583.367 135.652 583.367 141.493 577.602L154.725 564.545" stroke="#4E887A" stroke-width="13" stroke-linecap="round"/>
<circle opacity="0.5" cx="739.5" cy="513.5" r="19.5" fill="#4E887A"/>
<circle opacity="0.5" cx="755.5" cy="589.5" r="13.5" fill="#4E887A"/>
<circle opacity="0.5" cx="769.5" cy="539.5" r="10.5" fill="#4E887A"/>
<circle opacity="0.5" cx="153.244" cy="18.2216" r="18.2216" fill="#4E887A"/>
<circle opacity="0.5" cx="147.366" cy="61.7186" r="12.3437" fill="#4E887A"/>
<circle opacity="0.5" cx="181.459" cy="42.909" r="9.99252" fill="#4E887A"/>
</svg>
